/* XPM */
static char *d73eaabde6ea4f29cb4ebc5ff3a91c89cxXkIwxxKM2cjS9e[] = {
/* columns rows colors chars-per-pixel */
"32 32 23 1 ",
"  c #281000",
". c #291503",
"X c #201010",
"o c #372616",
"O c #372717",
"+ c #382818",
"@ c #683818",
"# c #6B3B1B",
"$ c #8C2000",
"% c #95270F",
"& c #C42800",
"* c #F02C00",
"= c #8C6038",
"- c #A47850",
"; c #738418",
": c #4CAF4F",
"> c #4CAE50",
", c #4CAF50",
"< c #B4A864",
"1 c #949094",
"2 c #ECBC90",
"3 c gray80",
"4 c white",
/* pixels */
",,,::,,::::::::::::::::::,,,,,,,",
":,,,::::,             ::::::,,,,",
":,,:::::,             :,:,::,,,,",
":,,:::   ++@@=====@@++    :::,,,",
":,::::   ++@@=====@@++    ::::,,",
":,::  oooo+++-----+++++ooo  ::,,",
":,::  +++++++-----++++++++  ::,,",
":,:::  @@==44+++++44==@@  ::::,,",
":,::,  @@==44++++o44==@@  ,,,:,,",
":,:  @@==44XX=====XX44==@@  ::,,",
":,:  @@==44XX=====XX44==@@  ::,,",
":,:  @@==44XX-----XX44==@@  ::,,",
":,:  @@==44XX-----XX44==@#  ::,,",
":::  33====---------====33@@  :,",
":  @@33====---------====33@@  :,",
":  @@3344--@@@@@@@@@--4433@@  :,",
":  @@3344--@@@@@@@@@--4433@@  :,",
":  @@11@@@@=========@@@@11@@  :,",
":  @@11@@@@=========@@@@11@@  :,",
":. @@@@====@@@@@@@@@====@@@@  :,",
":  @@@@====@@@@@@@@@====@@  :::,",
":::    **&&&&<<22<<@@$$$$   :::,",
":::    **&&&&<<22<<@@$$$$  ::::,",
":,:::%%$$$$$$$$<<;;$$$$$$  ::::,",
":,:::%%$$$$$$$$<<;;$$$$$$  ::::,",
":::  $$;;;;$$$$  $$$$$$$$    ::,",
":::  $$;;;;$$$$  $$$$$$$$    :::",
":    ;;<<<<;;$$                :",
",.   ;;<<<<;;$$                ,",
",                              :",
",::                          :::",
":,:                          :::"
};
