/* XPM */
static char *cc270e813b4a46d2e57ceed5f1631beawLhhYyLsrm8wNhNG[] = {
/* columns rows colors chars-per-pixel */
"32 32 9 1 ",
"  c black",
". c #4CAF4F",
"X c #FEC900",
"o c #FFFEE1",
"O c #FFFEE7",
"+ c #FFFFEE",
"@ c #FBFBFB",
"# c #FFFEF8",
"$ c #FEFEFE",
/* pixels */
"................................",
"...........          ...........",
"...........          ...........",
"........   $$$$$$$$$$   ........",
"........   $$$$$$$$$$   ........",
"......  $$$XXXXXXXXXXXXX  ......",
"......  $++XXXXXXXXXXXXX  ......",
"....  @$XXXXX$$$$$$  XXXXX  ....",
"....  @$XXXXX$$$$$$  XXXXX  ....",
"....  @$XXXXX$$XXXX  XXXXX  ....",
"..  @@XXXXXXX$$XXXX  XXXXXXX  ..",
"..  $$XXXXXXX$$XXXX  XXXXXXX  ..",
"..  $$XXXXXXX$$XXXX  XXXXXXX  ..",
"..  $$XXXXXXX$$XXXX  XXXXXXX  ..",
"..  $$XXXXXXX$$XXXX  XXXXXXX  ..",
"..  $$XXXXXXX$$XXXX  XXXXXXX  ..",
"..  $$XXXXXXX$$XXXX  XXXXXXX  ..",
"..  $$XXXXXXX$$XXXX  XXXXXXX  ..",
"..  $$XXXXXXX$$XXXX  XXXXXXX  ..",
"..  $$XXXXXXX$$XXXX  XXXXXXX  ..",
"..  $$XXXXXXX$$XXXX  XXXXXXX  ..",
"..  $$XXXXXXX$$XXXX  XXXXXXX  ..",
"....  @$XXXXX$$XXXX  XXXXX  ....",
"....  @$XXXXX        XXXXX  ....",
"....  @$XXXXX        XXXXX  ....",
"......  $#oXXXXXXXXXXXX   ......",
"......  $$OXXXXXXXXXXXX   ......",
"........   $$XXXXXXXX  .........",
"........   $$XXXXXXXX  .........",
"...........          ...........",
"...........          ...........",
"................................"
};
