/* XPM */
static char *_b6106e3474c4c16e293214b834e5270FblDlAGXCIfUn0vS[] = {
/* columns rows colors chars-per-pixel */
"32 32 6 1 ",
"  c black",
". c #20E525",
"X c #20E526",
"o c #4BAC4F",
"O c #4CAF4F",
"+ c #4CAF50",
/* pixels */
"                                ",
" XXXXXXXXXXXXXXXXXXXXXXXXXXXXXX ",
" XXXXXXXXXXXXXXXXXXXXXXXXXXXXXX ",
" OOOOOOXXXXXXOOOOOOOOOOOOOOOOOO ",
" XXOOOOXXXXXXOXXXXOOOOOOXOXXXXO ",
" XXOOOOXXXXXXOXXXXOOOOOOOXOXXXO ",
" XXOOOOXXXXXXOXXXXOOOOOOXOXXXXO ",
" XXOOOOXXXXXXOXXXXOOOOOOOXOXXXO ",
" XXOOOOXXXXXXOXXXXOOOOOOXOXXXXO ",
" XXOOOOXXXXXXOXXXXOOOOOOOXOXXX+ ",
" XXOOOOXXXXXXOXXXXOOOOOOXOXXXX+ ",
"                                ",
"O                              O",
"OO XXXXOOOXXXXXXOOOOOOOOXOXXO OO",
"OO XXXXOOOXXXXXXOOOOOOOXOXXXO O+",
"OO XXXXOOOXXXXXXOOOOOOOOXOXXO O+",
"OO XXXXOOOXXXXXXOOOOOOOXOXXXO O+",
"OO XXXXOOOXXXXXXOOOOOOOOXOXXO O+",
"OO XXXXOOOXXXXXXOOOOOOOXOXXXO OO",
"OO XXXXOOOXXXXXXOOOOOOOOXOXXO OO",
"OO XXXXOOOXXXXXXOOOOOOOXOXXXO OO",
"OO XXXXOOOXXXXXXOOOOOOOOXOXXO oO",
"OO XXXXOOOXXXXXXOOOOOOOXOXXXO OO",
"OO XXXXOOOXXXXXXOOOOOOOOXOXXO OO",
"OO XXXXOOOXXXXXXOOOOOOOXOXXXO OO",
"OO XXXXOOOXXXXXXOOOOOOOOXOXXO OO",
"OO XXXXOOOXXXXXXOOOOOOOXOXXXO OO",
"OO XXXXOOOXXXXXXOOOOOOOOXOXXO OO",
"OO XXXXOOOXXXXXXOOOOOOOXOXXXO OO",
"OO XXXXOOOXXXXXXOOOOOOOOXOXXO OO",
"OO XXXXOOOXXXXXXOOOOOOOXOXXXO OO",
"OO XXXXOOOXXXXXXOOOOOOOOXOXXO O+"
};
