/* XPM */
static char *ae853d1d35d94798d3394558357fd989uhtySrTkkHok8qZO[] = {
/* columns rows colors chars-per-pixel */
"32 32 4 1 ",
"  c black",
". c #E16B13",
"X c #E16C13",
"o c gray62",
/* pixels */
".oooooooooooooooooooo .oooooooo.",
"o.................... o........ ",
"o.................... o........ ",
"o.................... o........ ",
"o.................... o........ ",
"o.................... o........ ",
"o.................... o ....... ",
"o.................... .        .",
"o.................... ooooooooo ",
"o.................... o........ ",
"o.................... o........ ",
"o...................  o........ ",
"o................... o......... ",
"o................... o......... ",
"o................... .......... ",
"o..................oo.X........ ",
"o................. o........... ",
"o................. o........... ",
"o................  o........... ",
"     ............ o............ ",
"ooooo   ........  o............ ",
"o.....o   ......  o............ ",
"o......oo    ... o............. ",
"o........ooo   . o............. ",
"o..........oo    o............. ",
"o............ooo o............. ",
"o..............o o............. ",
"o............... o............. ",
"o............... o............. ",
"o............... o............. ",
"o............... o............. ",
".               .o             ."
};
